# xmcd CD database file
#
# Track frame offsets:
#	150
#	30468
#	55338
#	83060
#	102066
#	128725
#	148002
#	166755
#	198012
#	219021
#	241039
#	279054
#
# Disc length: 3925 seconds
#
# Revision: 0
# Processed by: cddbd v1.5.2PL0 Copyright (c) Steve Scherf et al.
# Submitted via: CDex 1.51
#
DISCID=8a0f530c
DTITLE=Helmut Burger Trio - Do the helmet
DYEAR=1900
DGENRE=Jazz
TTITLE0=I love beeing here with you
TTITLE1=Sek, Becks and Jazz
TTITLE2=Sau Süß
TTITLE3=Diabolo funghi
TTITLE4=It will never happen again
TTITLE5=Dadideldido
TTITLE6=Moments notice
TTITLE7=Golden earrings
TTITLE8=Armando's Rumba
TTITLE9=Pride für Tanja
TTITLE10=All blues
TTITLE11=Do the helmet
EXTD=
EXTT0=
EXTT1=
EXTT2=
EXTT3=
EXTT4=
EXTT5=
EXTT6=
EXTT7=
EXTT8=
EXTT9=
EXTT10=
EXTT11=
PLAYORDER=
